<svg width="86" height="16" viewBox="0 0 86 16" fill="none" xmlns="http://www.w3.org/2000/svg">
<g clip-path="url(#clip0_14330_16422)">
<path d="M7.65703 12.7025L3.24453 15.1775L4.23203 10.215L0.519531 6.78999L5.54453 6.18999L7.65703 1.60249L9.76953 6.18999L14.7945 6.78999L11.082 10.215L12.0695 15.1775L7.65703 12.7025Z" fill="#F5885F"/>
</g>
<g clip-path="url(#clip1_14330_16422)">
<path d="M25.1375 12.7025L20.725 15.1775L21.7125 10.215L18 6.78999L23.025 6.18999L25.1375 1.60249L27.25 6.18999L32.275 6.78999L28.5625 10.215L29.55 15.1775L25.1375 12.7025Z" fill="#F5885F"/>
</g>
<g clip-path="url(#clip2_14330_16422)">
<path d="M42.618 12.7025L38.2055 15.1775L39.193 10.215L35.4805 6.78999L40.5055 6.18999L42.618 1.60249L44.7305 6.18999L49.7555 6.78999L46.043 10.215L47.0305 15.1775L42.618 12.7025Z" fill="#F5885F"/>
</g>
<g clip-path="url(#clip3_14330_16422)">
<path d="M60.1082 12.7025L55.6957 15.1775L56.6832 10.215L52.9707 6.78999L57.9957 6.18999L60.1082 1.60249L62.2207 6.18999L67.2457 6.78999L63.5332 10.215L64.5207 15.1775L60.1082 12.7025Z" fill="#F5885F"/>
</g>
<g clip-path="url(#clip4_14330_16422)">
<path d="M77.5867 12.7025L73.1742 15.1775L74.1617 10.215L70.4492 6.78999L75.4742 6.18999L77.5867 1.60249L79.6992 6.18999L84.7242 6.78999L81.0117 10.215L81.9992 15.1775L77.5867 12.7025ZM77.5867 11.2775L80.2367 12.765L79.6492 9.77749L81.8867 7.71499L78.8617 7.35249L77.5867 4.58999L76.3117 7.35249L73.2867 7.71499L75.5242 9.77749L74.9367 12.765L77.5867 11.2775Z" fill="#F5885F"/>
</g>
<defs>
<clipPath id="clip0_14330_16422">
<rect width="15.48" height="15" fill="white" transform="matrix(1 0 0 -1 0.519531 15.89)"/>
</clipPath>
<clipPath id="clip1_14330_16422">
<rect width="15.48" height="15" fill="white" transform="matrix(1 0 0 -1 18 15.89)"/>
</clipPath>
<clipPath id="clip2_14330_16422">
<rect width="15.48" height="15" fill="white" transform="matrix(1 0 0 -1 35.4805 15.89)"/>
</clipPath>
<clipPath id="clip3_14330_16422">
<rect width="15.48" height="15" fill="white" transform="matrix(1 0 0 -1 52.9707 15.89)"/>
</clipPath>
<clipPath id="clip4_14330_16422">
<rect width="15.48" height="15" fill="white" transform="matrix(1 0 0 -1 70.4492 15.89)"/>
</clipPath>
</defs>
</svg>